# xmcd
#
# Track frame offsets:
#	150
#	14832
#	33427
#	52007
#
# Disc length: 1101 seconds
#
# Revision: 1
# Processed by: cddbd v1.5.2PL0 Copyright (c) Steve Scherf et al.
# Submitted via: audiograbber 1.83.01
#
DISCID=32044b04
DTITLE=Michael Bolton - A Love So Beautiful (Single-CD)
DYEAR=1900
DGENRE=
TTITLE0=A Love So Beautiful (Single Edit)
TTITLE1=A Love So Beautiful (Single Version)
TTITLE2=To Love Somebody
TTITLE3=Can I Touch You...There?
EXTD=
EXTT0=
EXTT1=
EXTT2=
EXTT3=
PLAYORDER=
